<svg width="128" height="128" viewBox="0 0 128 128" xmlns="http://www.w3.org/2000/svg">
  <!-- Background circle -->
  <circle cx="64" cy="64" r="60" fill="#1e1e1e" stroke="#007ACC" stroke-width="4"/>
  
  <!-- AI Brain/Network -->
  <g fill="#007ACC" stroke="#007ACC" stroke-width="2">
    <!-- Central node -->
    <circle cx="64" cy="64" r="8" fill="#00D7FF"/>
    
    <!-- Connected nodes -->
    <circle cx="40" cy="40" r="6"/>
    <circle cx="88" cy="40" r="6"/>
    <circle cx="40" cy="88" r="6"/>
    <circle cx="88" cy="88" r="6"/>
    
    <!-- Connection lines -->
    <line x1="64" y1="64" x2="40" y2="40"/>
    <line x1="64" y1="64" x2="88" y2="40"/>
    <line x1="64" y1="64" x2="40" y2="88"/>
    <line x1="64" y1="64" x2="88" y2="88"/>
    
    <!-- Outer ring of smaller nodes -->
    <circle cx="64" cy="25" r="3" fill="#00D7FF"/>
    <circle cx="103" cy="64" r="3" fill="#00D7FF"/>
    <circle cx="64" cy="103" r="3" fill="#00D7FF"/>
    <circle cx="25" cy="64" r="3" fill="#00D7FF"/>
  </g>
  
  <!-- Memory/Archive symbol -->
  <rect x="52" y="75" width="24" height="16" rx="2" fill="none" stroke="#00D7FF" stroke-width="2"/>
  <line x1="56" y1="79" x2="70" y2="79" stroke="#00D7FF" stroke-width="1"/>
  <line x1="56" y1="83" x2="68" y2="83" stroke="#00D7FF" stroke-width="1"/>
  <line x1="56" y1="87" x2="72" y2="87" stroke="#00D7FF" stroke-width="1"/>
</svg>